<?xml version="1.0" encoding="UTF-8" standalone="no"?>
<!-- Created with Inkscape (http://www.inkscape.org/) -->
<svg xmlns:rdf="http://www.w3.org/1999/02/22-rdf-syntax-ns#" style="enable-background:new" xmlns="http://www.w3.org/2000/svg" height="128" width="128" version="1.0" xmlns:cc="http://creativecommons.org/ns#" xmlns:dc="http://purl.org/dc/elements/1.1/" viewBox="0 0 128 128">
 <title>Adwaita Icon Template</title>
 <metadata>
  <rdf:RDF>
   <cc:Work rdf:about="">
    <dc:format>image/svg+xml</dc:format>
    <dc:type rdf:resource="http://purl.org/dc/dcmitype/StillImage"/>
    <dc:creator>
     <cc:Agent>
      <dc:title>GNOME Design Team</dc:title>
     </cc:Agent>
    </dc:creator>
    <dc:source/>
    <cc:license rdf:resource="http://creativecommons.org/licenses/by-sa/4.0/"/>
    <dc:title>Adwaita Icon Template</dc:title>
    <dc:subject>
     <rdf:Bag/>
    </dc:subject>
    <dc:date/>
    <dc:rights>
     <cc:Agent>
      <dc:title/>
     </cc:Agent>
    </dc:rights>
    <dc:publisher>
     <cc:Agent>
      <dc:title/>
     </cc:Agent>
    </dc:publisher>
    <dc:identifier/>
    <dc:relation/>
    <dc:language/>
    <dc:coverage/>
    <dc:description/>
    <dc:contributor>
     <cc:Agent>
      <dc:title/>
     </cc:Agent>
    </dc:contributor>
   </cc:Work>
   <cc:License rdf:about="http://creativecommons.org/licenses/by-sa/4.0/">
    <cc:permits rdf:resource="http://creativecommons.org/ns#Reproduction"/>
    <cc:permits rdf:resource="http://creativecommons.org/ns#Distribution"/>
    <cc:requires rdf:resource="http://creativecommons.org/ns#Notice"/>
    <cc:requires rdf:resource="http://creativecommons.org/ns#Attribution"/>
    <cc:permits rdf:resource="http://creativecommons.org/ns#DerivativeWorks"/>
    <cc:requires rdf:resource="http://creativecommons.org/ns#ShareAlike"/>
   </cc:License>
  </rdf:RDF>
 </metadata>
 <g stroke-width=".21277" fill="#fff">
  <path d="m77.213 101.91z"/>
  <path d="m71.489 66.17c0.23404-0.23404 0.4468-0.48936 0.63829-0.76596h1.8511l-1.5532-0.59574c0.14893-0.40426 0.27659-0.80851 0.38297-1.234 0.0426-0.2766-0.0213-0.57447-0.19148-0.80852-0.19149-0.14893-0.42554-0.21276-0.65958-0.14893-0.19149 0.10638-0.31915 0.31915-0.3617 0.53191-0.10638 0.87234-0.17021 1.766-0.25532 2.6596-0.0213 0.12766-0.14894 0.23404-0.34043 0.48936 0.17022 0.0213 0.34043-0.0213 0.48937-0.12766z"/>
  <path d="m70.851 66.277c0.0213 0.0213 0.0638 0.0213 0.0851 0.0425-0.14894-1.2766-1.1915-2.1277-0.72341-3.383 0.0425-0.10638-0.17021-0.3617-0.34042-0.46808-0.14894-0.0425-0.31915 0-0.44681 0.12766-0.0638 0.19149-0.0426 0.40425 0.0426 0.57447 0.68085 0.68085 0.3617 1.3404 0 1.9787 0.46808 0.38298 0.91489 0.76596 1.383 1.1277z"/>
  <path d="m71 66.319h-0.0426v0.0638z"/>
  <path d="m70.085 75.319c-0.12766 0.17021-0.0851 0.48936-0.10638 0.74468 0.21276 0.0425 0.44681 0.0638 0.65957 0.0425 0.68085-0.17022 1.3617-0.40426 2.0426-0.59575-0.31915-1.2553 1.0213-0.74468 1.5745-1.2979-0.21276-0.17021-0.40425-0.42553-0.55319-0.38298-1.2979 0.25532-2.6808 0.3617-3.617 1.4894z"/>
  <path d="m84.766 87.979c-0.68085 1.4681-1.2766-0.46808-2.1277 0.42553 1.234-0.2766 1.1702 0.48936 1.2766 1.1064 0.0213 0.34043 0.10638 0.68085 0.25532 1 0.17021 0.21277 0.40425 0.34043 0.65957 0.38298 0.21277 0.04255 0.44681-0.06383 0.82979-0.10638-1.2766-0.57447-0.72341-1.7234-0.89362-2.8085z"/>
  <path d="m74.532 130.57-3.0213 4.4043c-1.0426-1.1702-4.7447-5.3404-5.8723-6.5532-0.68085-0.72341-2.766-2.4894-4.766-4.2128-1.8723-1.617-3.8298-3.2766-4.1064-3.6383-0.29787-0.3617-0.42553-0.80851-0.3617-1.2766l0.0426-0.14894-0.23404-0.27659c-0.0213-0.10639-0.0426-0.19149-0.0638-0.29788-0.0851-0.3617-0.29788-0.78723-0.59575-0.95744-0.31915-0.19149-0.6383-0.40426-0.91489-0.65958l-1.1489-1.4042-0.38298-0.40426c0.34043-0.25532 0.74468-0.46808 0.74468-0.68085 0-0.53191-0.46808-0.85106-0.93617-1.1064-0.27659-0.14894-0.55319-0.31915-0.82978-0.46809-0.14894-0.0851-0.19149-0.27659-0.10639-0.40425l0.0213-0.0213 1.0213-1.3404c-1.8511 0.31914-0.97872-1.7234-1.8085-2.0426 0.12766 0.61702 0.3617 1.5958 0.2766 2.234l-0.14894 0.0213-0.80851-1.6808-0.0851 0.23404-1.2553-0.63829 0.0426-0.2766 0.95745-0.0851c-0.38298-0.42553-0.85107-0.95745-1.3404-1.4681-0.14894-0.19149-0.31915-0.34042-0.55319-0.4468-1.234-0.36171-2.3404-1.0426-3.2128-1.9787-1-1.0638-2.1915-1.7872-3.3404-2.5957-0.89362-0.6383-1.234-1.4468-1.4043-2.4255-0.21276-1.383-0.44681-2.766-0.65957-4.1489-0.19149-1.8936-0.23404-3.8936-0.23404-3.9149l-0.6383 0.02128c0 0.12766 0.0638 2.6596 0.34042 4.7234-0.0851 0.19149-0.12766 0.38298-0.10638 0.59574 0.14894 1.0213 0.2766 2.0851 0.48936 3.0851 0.0426 0.46809 0.17021 0.9149 0.38298 1.3192 0.0213 0.0638 0.0426 0.12766 0.0638 0.21277 0.76596 2 1.9149 3.8723 2.8085 5.8298 1.0213 2.2128 2.8723 3.7872 4.4681 5.5106 1.1702 1.2553 2.8511 2 4.2979 3 0.40425 0.2766 0.74468 0.53192 1.2128 0.10638 0.12766-0.0638 0.25532-0.0851 0.40426-0.0425l0.21277 0.25532c0 0.12766-0.0213 0.25532-0.0638 0.38298s-0.0851 0.23404-0.14894 0.34043l2.5957 2.8298c0.0851 0.3617 0.23405 0.68085 0.46809 0.97873 0.29787 0.38297 1.7872 1.6596 4.1915 3.7234 2 1.7021 4.0638 3.4681 4.7234 4.1702 1.2979 1.383 6.0851 6.7872 6.1277 6.8298l0.2766 0.29787 3.4894-5.0851z"/>
  <path d="m108.04 47.468c-4.5319 0.55319-10.894 1.4681-13.83 1.5745-4.617 0.19149-7.0213-1.1064-7.6596-1.8085-0.5532-0.61702-1.2553-3.0426-1.383-3.9362-0.38298 0.29787-0.9149 0.29787-1.3192 0l0.0426-0.31915 0.74468-0.23404c-0.38298-1.2766-0.53192-2.617-1.2553-3.766-0.44681-0.72341-1.2128-0.93617-1.2979-1.8085 0.34042-0.0213 0.65957 0.10638 0.91489 0.3617l0.21277-0.17021c-0.678-1.128-1.274-2.724-1.806-3.83-0.51-1.043-1.191-1.851-1.702-2.66-1.106-1.808-1.787-4.829-2.617-7.17-1.276-3.617-3.702-8.085-5.723-11.34-2.319-3.745-8.383-2.128-12.341-2.7237-8.2553-1.2128-18.979 0.93617-24 8.4894-2.319 3.489-2.744 9.744-3.021 13.872-0.31915 4.6809-0.27659 9.5319-1.0426 14.17-8.234 0-18.489 0.46808-24.319 7.2979-1.3617 1.5957-1.7021 2.617-1.8511 4.5745-0.14894 1.8298-0.5532 5.0426 0.17021 6.7447 1.234 2.8936 7.3192 4.8723 9.9149 6.2553 1.9149 1.0213 3.617 2 5.7447 2.5957 1.8085 0.51064 5.5745 0.53192 7 1.5958 1.617 1.2128 1.2979 3.7234 1.617 5.766 0.34042 2.1702 1.0426 3.617 1.8085 5.617 1.0213 2.6596 2.8511 7.8936 6.8085 7.2553 2.2766-0.3617 1.7021-2.0213 1.617-4.0851-0.10638-2.8298-0.78724-3.8723 2.0851-4.3404 0.10638 1.1702-0.34043 3.3191 0.7234 3.9362-0.44681 3.6809 5.2128 7.6596 7.5532 10.34 1.3192 0.08511 2.4255 2.8298 3.1277 3.7872 1.6383 2.234 3.2128 2.5319 5.7234 3.9574l-0.25531 0.48936c0.70212 0.82979 1.4468 1.4043 2.5319 0.61702-0.23404 0.61703-0.78723 1.0426-1.4255 1.1489 0.0426 0.10638 0.0851 0.19149 0.12766 0.29787 0.76596 0.14894 1.5532 0.3617 1.8298-0.78723l1.2766 0.34042c0.10638 1.8723-0.89362 0.80851-1.9362 1.2979-0.95745 0.4468-1.4681 1.2128-2.6596 1.6383l2.3617 0.80851c-0.2766-1.7021 0.12766-1.4681 1.7872-1.8511-0.23404 0.87234-0.40425 1.4468-0.55319 2 0.0638 0.0213 0.10638-0.17021 0.17021-0.14894 0.0638-0.12765 0.12766-0.0425 0.23405-0.21276 0.0213-0.0638 0.10638-0.0638 0.14893-0.0425 0.0213 0.0213 0.0426 0.0425 0.0638 0.0851 0.0425 0.29787 0.0851 0.53192 0.10639 0.76596 0.89361-0.74468 1.1702-1.3404 1.9149-2.2979-0.80851-0.6383-0.97872-0.87234-1.1489-1.8936 1.7872 0.14894 2.3192 0.97872 2.383 2.617 0.29787-0.51064 0.95745-0.95745-0.0213-1.6596 1.4255-0.70213 6.0213 0.25532 6.1702 2.1277 0.12766-0.31915 0.2766-0.6383 0.42554-0.95745l-0.74468-0.19149 0.46808-0.87234h1.0426c-0.34042-0.40426-0.59574-0.89362-0.7234-1.4255 6.8511-3.2766 0.44681 5.234-0.59575 3.617l-2.4894 2.2766-4.2979-2.0213c-0.21277 0.40425-0.55319 0.65957-0.76596 1.1064l-1.4468-0.21276c0.12766 0.48936-0.91489 1.2766 0.31915 1.5106 1.0426-1.0638 3.4043-2.0851 4-0.0213l-0.74468 1 0.87234 0.53191-0.68085 0.42553c0.19149 0.44681 0.38298 0.85107 0.59575 1.3404l-1.234 0.14894c1.1702 1 0.23405 1.3404 2.3404 1.2128-0.53192 0.57447-0.85106 1.3192-0.93617 2.0851l-1.7447-0.74468c0.0638 0.46808 0.10638 0.76595 0.19149 1.2553-1.8298-1.5106-2.2766 0.51063-2.2766 1.8298-0.21276 0.0213 1.4468 1.9787 1.4681 2 0.53191 0.97873 0.74468 0.46809 0.38298 1.8085l0.91489 0.12766c-0.3617-1.0426-0.85106-2.0638-1.4681-2.9787 0.48937-0.23404 1.7021-0.61702 2-1.1702 0.23405-0.44681-0.29787-1.1702 0.10639-1.5532h2.3404c-0.38298-1.4468 1.234-1.5745 1.5745-2.7872 0.55319 0.72341 0.55319 1.8298 1.7234 1.6383 0.0851-0.78723 0.53191-0.97872 1.4894-0.51064-1.5319 0.48936-1.234 1.8723-1.5532 2.9149l-1.1489-0.89362c0.12766 1.3192 1.9574 1.2128 1.3192 2.5957 0.82979-0.17021 1.9787 0 2.617 0.61702l-2.7447 0.34043 0.93617 1.0638 0.80851-0.80851 0.25532 0.19149c-0.53192 1.0426-1.7872 1.4894-2.9787 0.85106 0.23404 0.12766-2-0.91489-0.6383-0.91489-0.59575 0.0213-1.3617-1.0638-1.8085 0.29787l-0.76596-1.0638c0 3.2766 2.2128 1.7872 3.2553 4.1702-1.0213-0.10638-1.5532 0.46809-2.0426 1.2128-1 1.5957 2.0213 4 2.9362 5.0213 2 2.2553 3.5957 4.7447 5.3404 7.1915-0.70213-3.9149-0.61702-7.9574 0.29787-11.83 0.76596-3.2128 2.3617-5.4681 3.7872-8.383 0.65957-1.3192 0.57447-2.5532 0.93617-3.9362 0.34042-1.3192 1.1702-1.4894 1.617-2.5532 0.68085-1.6383 1.8936-5.5532 2-6.2766-1.0851-0.57447-1.5106-0.91489-2.0638-2.0851-0.17021-0.38298-0.25532-1.5745-0.3617-2.2553-0.0426-0.21277 0.0638-0.44681 0.25532-0.55319 0.17021-0.0851 0.4468-0.59575 1.1064-2.8936 0.2766-1 0.17021-3.9362 0.6383-5.0851 0.46808-1.1489 1.9149-2.9362 2.1489-3.8511 0.10639-0.42553-0.0426-1.9574 0-2.5319 0.0851-0.53192 0.23405-1.0213 0.51064-1.4894 0.21277-0.3617 1.1064-1.3617 1.3404-5.7447 0.0426-0.76596 0.0851-1.4468 0.10638-1.617 0.0426-0.42553-0.10638-0.95745-0.2766-1.5106-0.17021-0.46808-0.25531-0.93617-0.29787-1.4255 0-0.59575-0.42553-3.0426-0.27659-4.8298 0.10638-1.3404 0.17021-2.0638 0.17021-2.2128 0-0.34042 0.0426-4.6596 0.0426-4.9362 0 0 0.0638-2.6383 0.51064-4.2128 0.44681-1.5745 1.0426-4.0638 1.0426-4.0638 1.6808-2.5106 8.6808-4.1489 10.596-5.0213 4.6383-2.1277 8.6596-4.0426 12.277-7.7447-0.65958 0.10638-3.0851 0.12766-5.7447 0.44681zm-23.189-2.872c0.10638 0.97872 0.38298 1.9149 0.82979 2.7872-2.1277 0-5.766 0.0213-6.3617-2.3404zm-45.787 27.787 0.25532-0.0425 0.93617 2.9574c-0.893-0.105-1.489-1.744-1.191-2.914zm3.255 11.532c-0.0425 0.21276-0.68085 0.31915-1.0638 0.40426-1.617 0.31915-2.5745-0.82978-3.5319-1.7872-1.3404-1.3404-2.5958-2.766-3.7447-4.2553-0.55319-0.7234-0.82979-1.6808-1.2128-2.5319-0.7234-1.617-1.4468-3.2128-2.1277-4.8511-0.12766-0.29787-0.0638-0.65957-0.0851-1l0.44681-0.10638 1.3192 1.9787c0.0638-0.3617 0.0638-1 0.27659-1.5957 0.25532-0.72341 0.97873-0.78724 1.4043-0.14894 0.42553 0.6383 1.1064 1.1489 0.55319 2.234-0.25532 0.46809 0.38298 1.5319 0.80851 2.2128 0.42553 0.68085 1 1.4894 1.6596 1.6596 1.4468 0.40426 2.3404 1.9787 4.1702 1.766-0.0213 0.34043-0.0638 0.70213-0.0851 1 0.19149 0.25532 0.53191 0.53192 0.51064 0.76596-0.10638 0.93617 0.27659 1.5957 0.78723 2.3404 0.23404 0.46808 0.0638 1.2979-0.0851 1.9149zm8 7.1489c-0.55319-1.1489-0.42553-1.4468 0.61702-2.0213l0.34043 0.14894zm17.745 14.83-0.29787 0.0638-0.78723-0.74468v-0.40425l1.0851-0.21277zm-1.0426-1.7021c-0.57447-0.95745 0.0638-1.3617 0.53192-1.7447 0.0638-0.0426 0.51063 0.17022 0.55319 0.31915 0.23404 0.95745-0.68085 0.9149-1.0851 1.4255zm3.2128 0.85106c-0.0213 0.17021-0.48937 0.40425-0.53192 0.3617-0.34042-0.29787-0.87234-0.65957-0.87234-1-0.0213-0.44681 0.40426-0.89362 0.6383-1.3617l0.95745 0.53191-0.17022 0.23405c0.0426 0.42553 0.0213 0.82978-0.0213 1.234zm0.70212-2.5106c-0.21276 0.0426-0.61702-0.21277-0.74468-0.42553-0.12766-0.21277-0.0426-0.55319 0.0426-0.80851 0.14894-0.29787 0.31915-0.57447 0.53192-0.82979 0.46808 1.1064 1 0.12766 1.4894-0.0213 0.0638 0.0851 0.12766 0.12766 0.12766 0.19149 0.0851 0.44681 0.34043 1.1277 0.17021 1.2766-0.42553 0.3617-1.0426 0.53191-1.617 0.61702zm4.5958 12.34c-0.48936 0.59574-1.0426 1.1489-1.6383 1.6383-0.12766 0.10639-0.59574 0.10639-0.6383 0-0.10638-0.19149-0.14893-0.57446-0.0213-0.7234 0.6383-0.7234 1.3404-1.383 2.0213-2.0638l0.40426 0.10638c-0.0213 0.36171 0.0638 0.82979-0.10639 1.0638zm0.21276-10.66c-0.0213 0.10639-0.10638 0.17022-0.21276 0.14894-0.0426 0-0.0638-0.0213-0.10638-0.0425-0.70213-0.6383-0.70213-1.0851-0.0426-1.5745l-0.21277-0.17026-0.89362 1.4468c-0.0638 0.0851-0.17021 0.12766-0.27659 0.0638-0.0213-0.0213-0.0426-0.0425-0.0638-0.0638l-0.23404-0.40426c-0.0638-0.10638-0.19149-0.14894-0.31915-0.10638l-1.2128 0.59574-0.19149-0.21276 1.3192-2.6383c0.0638-0.10639 0.19149-0.14894 0.29787-0.10639l0.97873 0.46809c0.10638 0.0426 0.23404 0.0426 0.31915-0.0213l0.57446-0.40426c0.10639-0.0638 0.23405-0.0638 0.31915 0.0213l0.25532 0.23405c0.0638 0.0638 0.10638 0.14893 0.0851 0.23404-0.12766 0.93617-0.25532 1.7447-0.38298 2.5319zm12.766-36.167v0.0213c0 0.19149-0.0426 4.5957-0.0426 4.9574 0 0.12766-0.0851 1.1489-0.17021 2.1277-0.17021 1.9149-0.3617 4.2766-0.3617 4.8936 0.0426 0.57447 0.14893 1.1277 0.34042 1.6808 0.12766 0.44681 0.2766 0.89362 0.23405 1.1702-0.0213 0.21276-0.0638 0.80851-0.10639 1.6596-0.0851 1.5957-0.29787 5.3617-0.48936 5.8085-0.23404 0.38298-0.29787 1.1064-0.38298 1.9362-0.0213 0.48936-0.0851 0.95745-0.19149 1.4255-0.23404 0.85106-1.4681 3.4894-1.617 3.7447-0.0851 0.12766-0.17021 0.38298-0.74468 2.4043-0.57447 1.9787-1.617 5.6383-1.9362 6.0638l-0.0213 0.0213c-0.82979 0-1.7234 0.82979-2.5957 0.19149-0.0638-0.42553-0.17022-0.85106-0.31915-1.2553-0.42553-0.44681-0.93617-0.53191-1.4894-0.21277-0.61703-0.42553-0.87235 0.42554-1.5958-0.63829 0.10638 0.17021 0.17021-2.0851 0.19149-2.1277-0.0213-0.6383-1.234-0.29788-0.14894-1.3192-0.65957-0.34043-1.5532-0.38298-1.2553-1.4255 0.70213-0.06383 3.2979-0.76596 2.7021 0.80851l0.9149 0.87234c1.1702-1.4468 1.5106-2.2766 1.8723-4.1064-0.44681-0.04255-0.89362-0.68085-1.4043 0l-1.2553-1.3617-0.74468 1.1064c-2-2.6809-3.617 1.4043-5.5106 0.25532-0.76595 0.46808-1.9149 0.76596-2.766 1.0638-0.12766-0.59574-0.2766-1.2128-0.40426-1.8298h-0.10638l-0.14894 1.5106-0.17021 0.02128-0.14894-0.6383c-0.0426 0.31915-0.10638 0.7234-0.17021 1.1277h-0.149l-0.425-1.745c-0.53191 0.80851-0.97872 1.3191-1.7021 0.7234-0.74468 0.95745-1.2128 1.0638-1.2128-0.31915l-0.61702 0.17021c-0.107-0.467-0.192-0.893-0.298-1.467l-1.766 0.59574c0.27659-1.1064 1.4042-4.617 2.4681-5.1702 1.0638-0.55319 1.9362 0.38298 2.8298-0.6383l0.55319 0.57447c2.3404-0.51064 4 0.65957 6.2128 0.78723 2.3617 0.12766 4.5106-1.2766 6.617-2.2766l-0.12766-0.31915c-4.766 1.6596-9.7447 1.1277-14.745 1.1277l-0.10639-0.38298 2.4043-1.5745c0.3617 1.1915 4.7447 0.29787 5.7447 0.23404 2.1064-0.10638 3.234-0.44681 5.3617-1.5957 0.6383 0.29787 1.1702 0.61702 1.4468-0.7234 0.76596-0.25532 2.1064-0.48936 2.6383-0.02128 2.1277-1.6809 2.9787-1.8936 1.5957-4.383 0-0.0213-0.0426 0.0851-0.14893 0.38298-0.0851-0.31915-0.14894-0.57447-0.23405-0.82979-0.0426-0.14894-0.21276-0.23404-0.3617-0.19149-0.0213 0-0.0426 0.0213-0.0426 0.0213l-0.46808 0.25532c-1.0213-0.46809-2.1702-1.234-3.2766-1.2553-0.65957-0.0213-1.234 0.53191-1.9787 0.53191-2.7234 0.0213-3.8936-1.9574-6.8723-1.2766 0.85106 0.87234 5.7872 0.3617 2.9574 2.3192 0.51064 1.0426 1.6596 3.3404-0.0426 4.1277-0.12766-0.74468-0.25531-1.4681-0.38297-2.1064l-0.14894 0.17022c-0.87234-0.82979-1.1915-1.7447-0.0851-2.9574l-2.617 0.46808-2.0213-1.7234-0.21276 0.25532c1.8511 1.6808 3.4894 3.2128 0.14893 3.2128 0.12766-0.40426 0.0638-0.87235-0.17021-1.234-1.1064 0.6383-1.1489 2.1489-1.4894 3.3617l-0.701-1.47-1.234 0.659-0.532-0.872c-0.14893 0.29788-0.25532 0.46809-0.34042 0.65958 0.14893-0.06383 0.34042 0 0.42553 0.12766 0.68085 1.0638-0.72341 0.74468-1.6383 0.6383-0.85106 0.97872-2.1277 1.8085-2.8511 2.766-0.82979 1.0851-0.97873 2.9149-1.2979 4.2553 1.6383 1.1702 0.25532 2.3404-0.95744 3.6809l-1.766-3.4681-0.89362 1.4255c-0.57447-1.0638-0.89361-2.2128-2.1915-3.0213 0.14894-0.46808 0.38298-1.1702 0.6383-2l-1.7021-0.61702c-0.17021-1.0638-0.17021-1.0638-1.7234-2.8085-0.10638 0.21277-0.19149 0.44681-0.29787 0.65957l-0.38298-0.06383c-0.0426-0.53192-0.10638-1.0638-0.14894-1.5745l-1.043-0.255c0.0851-0.82979 0.17021-1.617 0.25532-2.4043-1.2128-0.17021-0.85107-0.95744-0.9149-1.4255-2.4255-2.1702-2.9149-5.7447-2.9149-9.1277-1.7872 0-0.12766-4.0426 0.21277-5 0.25532-0.74468-0.31915-1.0213 0.0851-1.7021 0.0638-0.10638 1.6596-1.0426 2.0213-1.5106l0.10639 0.25532 1.7447-0.21276c-0.0426 0.21276-0.0851 0.42553-0.12766 0.59574 1.3617-0.38298 0.70213-1.5532 1.5745-2.2766 1.0213-0.85107 1.7021-0.2766 2.9149-0.21277 2.1277 0.14894 4.4468-0.68085 6.4043 0.0638-1.6596 0.70213-3 1.5319-3.9149 3.1702 4.0638 0 8.1277-0.42553 12.149-0.42553-0.95745-0.48936-0.76596-0.95744-0.46809-1.2766l-1.4042-0.87234c1.0851-1.8723 2.3192-0.34043 4.2128-0.6383 1.4681-0.23404 2.4468-0.82979 3.9787-0.53192 1.9149 0.36171 0.97872 0.6383 2.1277 1.7021 1.0851 1-0.57447 0.87234 1.2553 1.2979 1.3617 0.31915 1.2979-0.68085 2.3191-0.82978 2.8298-0.38298 4.3617 0 6.3192 1.5957 0.76596-2.0426-0.0638-2.7447-1.1064-4.4042l0.25532-0.34043c1.0213 0.31915 2.2766 0.40426 2.9787 1.0213zm-16.575 17.021-0.489-0.213c-0.17021-0.06383-0.25532-0.2766-0.17021-0.44681 0.0213-0.04255 0.0425-0.06383 0.0638-0.08511 0.31915-0.3617 0.61702-0.7234 0.78723-0.68085 0.68085 0.21276 0.38298 0.68085 0.31915 1.1702-0.0426 0.19149-0.21276 0.31915-0.40425 0.2766-0.0638 0-0.0851-0.02128-0.10639-0.02128zm1.3404 1.6383v-2.2766c0-0.12766 0.0213-0.23404 0.0851-0.34042s0.10638-0.31915 0.21277-0.3617c0.85106 1.0213 0.29787 1.9574-0.29788 2.9787zm-12.382-24.766c0-0.19149 0.10638-0.2766 0.29787-0.2766s0.38298-0.10638 0.38298 0.0851c0 0.19149-0.0638 0.48936-0.25532 0.48936-0.19149 0-0.42553-0.10638-0.42553-0.29787zm2.7021-0.0425c0.31915-0.0851 1.0638 0.3617 1.0638 0.55319 0 0.78723-0.68085 0.91489-1.4043 1-0.0213-0.59575-0.68085-1.2979 0.34043-1.5532zm17.511-1.0851c0.0425-0.12766 0.10638-0.25532 0.17021-0.38298 0.0851-0.0426 0.17021 0.14894 0.21277 0.21277 0.0426 0.0638-0.0213 0.34042-0.0213 0.42553 0 0.0851-0.19149 0.14893-0.25532 0.12766-0.0638-0.0213-0.10639-0.31915-0.10639-0.38298zm1.8298 0.44681c0-0.3617 0.2766-0.6383 0.61703-0.65958h0.23406l0.3617 0.55319-0.3617 0.9149h-0.831zm16.382-9.426c-6.1277 0.74468-12.34 0.87234-18.511 1.234-6.4042 0.3617-13.085 0.46808-19.468-0.12766-3-0.2766-5.9574-1.0638-8.8936-1.7234-2.5957-0.59574-6.2979-0.87234-8.6596-2.1702 0.0426-0.14893 0.0426-0.12766 0.0851-0.27659 7.4255 0 14.66 5.2979 22.191 2.7234 3.383-1.1489 6.8936-1.7447 10.426-2.3404 3.0638-0.51063 6.617-0.51063 9.5532-1.2766 0.78723 0.76596 3.1064 1.6383 7.1915 1.6383 0.29787 0 7.234-0.65958 7.5532-0.65958 2.9362-0.12766 4.9574-0.61702 9.5106-1.1702 0.7234-0.10638 1.4681-0.17021 2.1915-0.21277-1.6596 0.61703-3.3404 1.7234-4.8936 2.3404-2.6808 1.0638-5.4468 1.6808-8.2766 2.0213z"/>
  <path d="m80.021 80.787-0.31915-0.55319c0.76596-0.44681 2.8085-1.8936 3.1277-3.0426 0.3617-1.3192-0.0426-2.8085-0.0426-2.8085-0.3617-0.68086-0.76596-1.3192-1.234-1.9362-0.55319-0.72341-1.4255-1.4468-1.5532-1.7021-0.17022-0.31915-0.19149-0.87234-0.23405-1.4043-0.0213-0.29787-0.0213-1.1702-0.17021-1.3404-0.51064-0.61702-1.8298-2.0213-2.2766-2.7234-0.61703-0.95744-0.65958-4.617-0.68085-5.1064l0.87234-0.0638c0.10638 1.7234 0.17021 4.7021 0.57446 5.2979 0.44681 0.68085 1.2766 1.6808 1.766 2.2766 0.31915 0.48936 0.51064 1.0426 0.55319 1.617 0.0213 0.40425 0.0426 0.91489 0.14894 1.1277 0.10638 0.21276 0.65957 0.91489 1.1277 1.5319 0.82979 1.0638 1.5957 2.1064 1.5957 2.1064 0.40426 1.0426 0.44681 2.1915 0.14894 3.2766-0.42553 1.6596-3.2766 3.383-3.4043 3.4468z"/>
 </g>
</svg>
