<?xml version="1.0" encoding="utf-8"?>
<!-- Generator: Adobe Illustrator 23.0.1, SVG Export Plug-In . SVG Version: 6.00 Build 0)  -->
<svg version="1.1" id="Layer_1" xmlns="http://www.w3.org/2000/svg" xmlns:xlink="http://www.w3.org/1999/xlink" x="0px" y="0px"
	 viewBox="0 0 719.5 716.3" style="enable-background:new 0 0 719.5 716.3;" xml:space="preserve">
<title>TrevorIcn</title>
<path d="M440.8,474L440.8,474z"/>
<path d="M413.9,306c1.1-1.1,2.1-2.3,3-3.6h8.7l-7.3-2.8c0.7-1.9,1.3-3.8,1.8-5.8c0.2-1.3-0.1-2.7-0.9-3.8c-0.9-0.7-2-1-3.1-0.7
	c-0.9,0.5-1.5,1.5-1.7,2.5c-0.5,4.1-0.8,8.3-1.2,12.5c-0.1,0.6-0.7,1.1-1.6,2.3C412.4,306.7,413.2,306.5,413.9,306z"/>
<path d="M410.9,306.5c0.1,0.1,0.3,0.1,0.4,0.2c-0.7-6-5.6-10-3.4-15.9c0.2-0.5-0.8-1.7-1.6-2.2c-0.7-0.2-1.5,0-2.1,0.6
	c-0.3,0.9-0.2,1.9,0.2,2.7c3.2,3.2,1.7,6.3,0,9.3C406.6,303,408.7,304.8,410.9,306.5z"/>
<path d="M411.6,306.7h-0.2c0,0.1,0,0.2,0,0.3L411.6,306.7z"/>
<path d="M407.3,349c-0.6,0.8-0.4,2.3-0.5,3.5c1,0.2,2.1,0.3,3.1,0.2c3.2-0.8,6.4-1.9,9.6-2.8c-1.5-5.9,4.8-3.5,7.4-6.1
	c-1-0.8-1.9-2-2.6-1.8C418.2,343.2,411.7,343.7,407.3,349z"/>
<path d="M476.3,408.5c-3.2,6.9-6-2.2-10,2c5.8-1.3,5.5,2.3,6,5.2c0.1,1.6,0.5,3.2,1.2,4.7c0.8,1,1.9,1.6,3.1,1.8
	c1,0.2,2.1-0.3,3.9-0.5C474.5,419,477.1,413.6,476.3,408.5z"/>
<path d="M428.2,608.7L414,629.4c-4.9-5.5-22.3-25.1-27.6-30.8c-3.2-3.4-13-11.7-22.4-19.8c-8.8-7.6-18-15.4-19.3-17.1
	c-1.4-1.7-2-3.8-1.7-6l0.2-0.7l-1.1-1.3c-0.1-0.5-0.2-0.9-0.3-1.4c-0.4-1.7-1.4-3.7-2.8-4.5c-1.5-0.9-3-1.9-4.3-3.1l-5.4-6.6
	l-1.8-1.9c1.6-1.2,3.5-2.2,3.5-3.2c0-2.5-2.2-4-4.4-5.2c-1.3-0.7-2.6-1.5-3.9-2.2c-0.7-0.4-0.9-1.3-0.5-1.9c0,0,0.1-0.1,0.1-0.1
	l4.8-6.3c-8.7,1.5-4.6-8.1-8.5-9.6c0.6,2.9,1.7,7.5,1.3,10.5l-0.7,0.1l-3.8-7.9l-0.4,1.1l-5.9-3l0.2-1.3l4.5-0.4
	c-1.8-2-4-4.5-6.3-6.9c-0.7-0.9-1.5-1.6-2.6-2.1c-5.8-1.7-11-4.9-15.1-9.3c-4.7-5-10.3-8.4-15.7-12.2c-4.2-3-5.8-6.8-6.6-11.4
	c-1-6.5-2.1-13-3.1-19.5c-0.9-8.9-1.1-18.3-1.1-18.4l-3,0.1c0,0.6,0.3,12.5,1.6,22.2c-0.4,0.9-0.6,1.8-0.5,2.8
	c0.7,4.8,1.3,9.8,2.3,14.5c0.2,2.2,0.8,4.3,1.8,6.2c0.1,0.3,0.2,0.6,0.3,1c3.6,9.4,9,18.2,13.2,27.4c4.8,10.4,13.5,17.8,21,25.9
	c5.5,5.9,13.4,9.4,20.2,14.1c1.9,1.3,3.5,2.5,5.7,0.5c0.6-0.3,1.2-0.4,1.9-0.2l1,1.2c0,0.6-0.1,1.2-0.3,1.8
	c-0.2,0.6-0.4,1.1-0.7,1.6l12.2,13.3c0.4,1.7,1.1,3.2,2.2,4.6c1.4,1.8,8.4,7.8,19.7,17.5c9.4,8,19.1,16.3,22.2,19.6
	c6.1,6.5,28.6,31.9,28.8,32.1l1.3,1.4l16.4-23.9L428.2,608.7z"/>
<path d="M585.7,218.1c-21.3,2.6-51.2,6.9-65,7.4c-21.7,0.9-33-5.2-36-8.5c-2.6-2.9-5.9-14.3-6.5-18.5c-1.8,1.4-4.3,1.4-6.2,0
	l0.2-1.5l3.5-1.1c-1.8-6-2.5-12.3-5.9-17.7c-2.1-3.4-5.7-4.4-6.1-8.5c1.6-0.1,3.1,0.5,4.3,1.7l1-0.8c-3.2-5.3-6-12.8-8.5-18
	c-2.4-4.9-5.6-8.7-8-12.5c-5.2-8.5-8.4-22.7-12.3-33.7c-6-17-17.4-38-26.9-53.3c-10.9-17.6-39.4-10-58-12.8
	c-38.8-5.7-89.2,4.4-112.8,39.9c-10.9,16.4-12.9,45.8-14.2,65.2c-1.5,22-1.3,44.8-4.9,66.6c-38.7,0-86.9,2.2-114.3,34.3
	c-6.4,7.5-8,12.3-8.7,21.5c-0.7,8.6-2.6,23.7,0.8,31.7c5.8,13.6,34.4,22.9,46.6,29.4c9,4.8,17,9.4,27,12.2
	c8.5,2.4,26.2,2.5,32.9,7.5c7.6,5.7,6.1,17.5,7.6,27.1c1.6,10.2,4.9,17,8.5,26.4c4.8,12.5,13.4,37.1,32,34.1
	c10.7-1.7,8-9.5,7.6-19.2c-0.5-13.3-3.7-18.2,9.8-20.4c0.5,5.5-1.6,15.6,3.4,18.5c-2.1,17.3,24.5,36,35.5,48.6
	c6.2,0.4,11.4,13.3,14.7,17.8c7.7,10.5,15.1,11.9,26.9,18.6l-1.2,2.3c3.3,3.9,6.8,6.6,11.9,2.9c-1.1,2.9-3.7,4.9-6.7,5.4
	c0.2,0.5,0.4,0.9,0.6,1.4c3.6,0.7,7.3,1.7,8.6-3.7l6,1.6c0.5,8.8-4.2,3.8-9.1,6.1c-4.5,2.1-6.9,5.7-12.5,7.7l11.1,3.8
	c-1.3-8,0.6-6.9,8.4-8.7c-1.1,4.1-1.9,6.8-2.6,9.4c0.3,0.1,0.5-0.8,0.8-0.7c0.3-0.6,0.6-0.2,1.1-1c0.1-0.3,0.5-0.3,0.7-0.2
	c0.1,0.1,0.2,0.2,0.3,0.4c0.2,1.4,0.4,2.5,0.5,3.6c4.2-3.5,5.5-6.3,9-10.8c-3.8-3-4.6-4.1-5.4-8.9c8.4,0.7,10.9,4.6,11.2,12.3
	c1.4-2.4,4.5-4.5-0.1-7.8c6.7-3.3,28.3,1.2,29,10c0.6-1.5,1.3-3,2-4.5l-3.5-0.9l2.2-4.1h4.9c-1.6-1.9-2.8-4.2-3.4-6.7
	c32.2-15.4,2.1,24.6-2.8,17L403,536.7l-20.2-9.5c-1,1.9-2.6,3.1-3.6,5.2l-6.8-1c0.6,2.3-4.3,6,1.5,7.1c4.9-5,16-9.8,18.8-0.1
	l-3.5,4.7l4.1,2.5l-3.2,2c0.9,2.1,1.8,4,2.8,6.3l-5.8,0.7c5.5,4.7,1.1,6.3,11,5.7c-2.5,2.7-4,6.2-4.4,9.8l-8.2-3.5
	c0.3,2.2,0.5,3.6,0.9,5.9c-8.6-7.1-10.7,2.4-10.7,8.6c-1,0.1,6.8,9.3,6.9,9.4c2.5,4.6,3.5,2.2,1.8,8.5l4.3,0.6
	c-1.7-4.9-4-9.7-6.9-14c2.3-1.1,8-2.9,9.4-5.5c1.1-2.1-1.4-5.5,0.5-7.3h11c-1.8-6.8,5.8-7.4,7.4-13.1c2.6,3.4,2.6,8.6,8.1,7.7
	c0.4-3.7,2.5-4.6,7-2.4c-7.2,2.3-5.8,8.8-7.3,13.7l-5.4-4.2c0.6,6.2,9.2,5.7,6.2,12.2c3.9-0.8,9.3,0,12.3,2.9l-12.9,1.6l4.4,5
	l3.8-3.8l1.2,0.9c-2.5,4.9-8.4,7-14,4c1.1,0.6-9.4-4.3-3-4.3c-2.8,0.1-6.4-5-8.5,1.4l-3.6-5c0,15.4,10.4,8.4,15.3,19.6
	c-4.8-0.5-7.3,2.2-9.6,5.7c-4.7,7.5,9.5,18.8,13.8,23.6c9.4,10.6,16.9,22.3,25.1,33.8c-3.3-18.4-2.9-37.4,1.4-55.6
	c3.6-15.1,11.1-25.7,17.8-39.4c3.1-6.2,2.7-12,4.4-18.5c1.6-6.2,5.5-7,7.6-12c3.2-7.7,8.9-26.1,9.4-29.5c-5.1-2.7-7.1-4.3-9.7-9.8
	c-0.8-1.8-1.2-7.4-1.7-10.6c-0.2-1,0.3-2.1,1.2-2.6c0.8-0.4,2.1-2.8,5.2-13.6c1.3-4.7,0.8-18.5,3-23.9s9-13.8,10.1-18.1
	c0.5-2-0.2-9.2,0-11.9c0.4-2.5,1.1-4.8,2.4-7c1-1.7,5.2-6.4,6.3-27c0.2-3.6,0.4-6.8,0.5-7.6c0.2-2-0.5-4.5-1.3-7.1
	c-0.8-2.2-1.2-4.4-1.4-6.7c0-2.8-2-14.3-1.3-22.7c0.5-6.3,0.8-9.7,0.8-10.4c0-1.6,0.2-21.9,0.2-23.2c0,0,0.3-12.4,2.4-19.8
	s4.9-19.1,4.9-19.1c7.9-11.8,40.8-19.5,49.8-23.6c21.8-10,40.7-19,57.7-36.4C609.6,216.5,598.2,216.6,585.7,218.1z M476.7,204.6
	c0.5,4.6,1.8,9,3.9,13.1c-10,0-27.1,0.1-29.9-11L476.7,204.6z M261.5,335.2l1.2-0.2l4.4,13.9C262.9,348.4,260.1,340.7,261.5,335.2z
	 M276.8,389.4c-0.2,1-3.2,1.5-5,1.9c-7.6,1.5-12.1-3.9-16.6-8.4c-6.3-6.3-12.2-13-17.6-20c-2.6-3.4-3.9-7.9-5.7-11.9
	c-3.4-7.6-6.8-15.1-10-22.8c-0.6-1.4-0.3-3.1-0.4-4.7l2.1-0.5l6.2,9.3c0.3-1.7,0.3-4.7,1.3-7.5c1.2-3.4,4.6-3.7,6.6-0.7
	s5.2,5.4,2.6,10.5c-1.2,2.2,1.8,7.2,3.8,10.4s4.7,7,7.8,7.8c6.8,1.9,11,9.3,19.6,8.3c-0.1,1.6-0.3,3.3-0.4,4.7
	c0.9,1.2,2.5,2.5,2.4,3.6c-0.5,4.4,1.3,7.5,3.7,11C278.3,382.6,277.5,386.5,276.8,389.4L276.8,389.4z M314.4,423
	c-2.6-5.4-2-6.8,2.9-9.5l1.6,0.7L314.4,423z M397.8,492.7l-1.4,0.3l-3.7-3.5c0-0.6,0-1.3,0-1.9l5.1-1L397.8,492.7z M392.9,484.7
	c-2.7-4.5,0.3-6.4,2.5-8.2c0.3-0.2,2.4,0.8,2.6,1.5C399.1,482.5,394.8,482.3,392.9,484.7L392.9,484.7z M408,488.7
	c-0.1,0.8-2.3,1.9-2.5,1.7c-1.6-1.4-4.1-3.1-4.1-4.7c-0.1-2.1,1.9-4.2,3-6.4l4.5,2.5l-0.8,1.1C408.3,484.9,408.2,486.8,408,488.7
	L408,488.7z M411.3,476.9c-1,0.2-2.9-1-3.5-2s-0.2-2.6,0.2-3.8c0.7-1.4,1.5-2.7,2.5-3.9c2.2,5.2,4.7,0.6,7-0.1
	c0.3,0.4,0.6,0.6,0.6,0.9c0.4,2.1,1.6,5.3,0.8,6C416.9,475.7,414,476.5,411.3,476.9L411.3,476.9z M432.9,534.9
	c-2.3,2.8-4.9,5.4-7.7,7.7c-0.6,0.5-2.8,0.5-3,0c-0.5-0.9-0.7-2.7-0.1-3.4c3-3.4,6.3-6.5,9.5-9.7l1.9,0.5c-0.1,1.7,0.3,3.9-0.5,5
	L432.9,534.9z M433.9,484.8c-0.1,0.5-0.5,0.8-1,0.7c-0.2,0-0.3-0.1-0.5-0.2c-3.3-3-3.3-5.1-0.2-7.4l-1-0.8l-4.2,6.8
	c-0.3,0.4-0.8,0.6-1.3,0.3c-0.1-0.1-0.2-0.2-0.3-0.3l-1.1-1.9c-0.3-0.5-0.9-0.7-1.5-0.5l-5.7,2.8l-0.9-1l6.2-12.4
	c0.3-0.5,0.9-0.7,1.4-0.5l4.6,2.2c0.5,0.2,1.1,0.2,1.5-0.1l2.7-1.9c0.5-0.3,1.1-0.3,1.5,0.1l1.2,1.1c0.3,0.3,0.5,0.7,0.4,1.1
	C435.1,477.3,434.5,481.1,433.9,484.8L433.9,484.8z M493.9,314.8c0,0,0,0.1,0,0.1c0,0.9-0.2,21.6-0.2,23.3c0,0.6-0.4,5.4-0.8,10
	c-0.8,9-1.7,20.1-1.7,23c0.2,2.7,0.7,5.3,1.6,7.9c0.6,2.1,1.3,4.2,1.1,5.5c-0.1,1-0.3,3.8-0.5,7.8c-0.4,7.5-1.4,25.2-2.3,27.3
	c-1.1,1.8-1.4,5.2-1.8,9.1c-0.1,2.3-0.4,4.5-0.9,6.7c-1.1,4-6.9,16.4-7.6,17.6c-0.4,0.6-0.8,1.8-3.5,11.3
	c-2.7,9.3-7.6,26.5-9.1,28.5c0,0-0.1,0.1-0.1,0.1c-3.9,0-8.1,3.9-12.2,0.9c-0.3-2-0.8-4-1.5-5.9c-2-2.1-4.4-2.5-7-1
	c-2.9-2-4.1,2-7.5-3c0.5,0.8,0.8-9.8,0.9-10c-0.1-3-5.8-1.4-0.7-6.2c-3.1-1.6-7.3-1.8-5.9-6.7c3.3-0.3,15.5-3.6,12.7,3.8l4.3,4.1
	c5.5-6.8,7.1-10.7,8.8-19.3c-2.1-0.2-4.2-3.2-6.6,0l-5.9-6.4l-3.5,5.2c-9.4-12.6-17,6.6-25.9,1.2c-3.6,2.2-9,3.6-13,5
	c-0.6-2.8-1.3-5.7-1.9-8.6h-0.5l-0.7,7.1l-0.8,0.1l-0.7-3c-0.2,1.5-0.5,3.4-0.8,5.3H399l-2-8.2c-2.5,3.8-4.6,6.2-8,3.4
	c-3.5,4.5-5.7,5-5.7-1.5l-2.9,0.8c-0.5-2.2-0.9-4.2-1.4-6.9l-8.3,2.8c1.3-5.2,6.6-21.7,11.6-24.3s9.1,1.8,13.3-3l2.6,2.7
	c11-2.4,18.8,3.1,29.2,3.7c11.1,0.6,21.2-6,31.1-10.7l-0.6-1.5c-22.4,7.8-45.8,5.3-69.3,5.3l-0.5-1.8l11.3-7.4
	c1.7,5.6,22.3,1.4,27,1.1c9.9-0.5,15.2-2.1,25.2-7.5c3,1.4,5.5,2.9,6.8-3.4c3.6-1.2,9.9-2.3,12.4-0.1c10-7.9,14-8.9,7.5-20.6
	c0-0.1-0.2,0.4-0.7,1.8c-0.4-1.5-0.7-2.7-1.1-3.9c-0.2-0.7-1-1.1-1.7-0.9c-0.1,0-0.2,0.1-0.2,0.1l-2.2,1.2
	c-4.8-2.2-10.2-5.8-15.4-5.9c-3.1-0.1-5.8,2.5-9.3,2.5c-12.8,0.1-18.3-9.2-32.3-6c4,4.1,27.2,1.7,13.9,10.9
	c2.4,4.9,7.8,15.7-0.2,19.4c-0.6-3.5-1.2-6.9-1.8-9.9l-0.7,0.8c-4.1-3.9-5.6-8.2-0.4-13.9l-12.3,2.2l-9.5-8.1l-1,1.2
	c8.7,7.9,16.4,15.1,0.7,15.1c0.6-1.9,0.3-4.1-0.8-5.8c-5.2,3-5.4,10.1-7,15.8l-3.3-6.9l-5.8,3.1l-2.5-4.1c-0.7,1.4-1.2,2.2-1.6,3.1
	l0,0c0.7-0.3,1.6,0,2,0.6c3.2,5-3.4,3.5-7.7,3c-4,4.6-10,8.5-13.4,13c-3.9,5.1-4.6,13.7-6.1,20c7.7,5.5,1.2,11-4.5,17.3l-8.3-16.3
	l-4.2,6.7c-2.7-5-4.2-10.4-10.3-14.2c0.7-2.2,1.8-5.5,3-9.4l-8-2.9c-0.8-5-0.8-5-8.1-13.2c-0.5,1-0.9,2.1-1.4,3.1l-1.8-0.3
	c-0.2-2.5-0.5-5-0.7-7.4l-4.9-1.2c0.4-3.9,0.8-7.6,1.2-11.3c-5.7-0.8-4-4.5-4.3-6.7c-11.4-10.2-13.7-27-13.7-42.9
	c-8.4,0-0.6-19,1-23.5c1.2-3.5-1.5-4.8,0.4-8c0.3-0.5,7.8-4.9,9.5-7.1l0.5,1.2l8.2-1c-0.2,1-0.4,2-0.6,2.8c6.4-1.8,3.3-7.3,7.4-10.7
	c4.8-4,8-1.3,13.7-1c10,0.7,20.9-3.2,30.1,0.3c-7.8,3.3-14.1,7.2-18.4,14.9c19.1,0,38.2-2,57.1-2c-4.5-2.3-3.6-4.5-2.2-6L392,284
	c5.1-8.8,10.9-1.6,19.8-3c6.9-1.1,11.5-3.9,18.7-2.5c9,1.7,4.6,3,10,8c5.1,4.7-2.7,4.1,5.9,6.1c6.4,1.5,6.1-3.2,10.9-3.9
	c13.3-1.8,20.5,0,29.7,7.5c3.6-9.6-0.3-12.9-5.2-20.7l1.2-1.6c4.8,1.5,10.7,1.9,14,4.8L493.9,314.8z M416,394.8l-2.3-1
	c-0.8-0.3-1.2-1.3-0.8-2.1c0.1-0.2,0.2-0.3,0.3-0.4c1.5-1.7,2.9-3.4,3.7-3.2c3.2,1,1.8,3.2,1.5,5.5c-0.2,0.9-1,1.5-1.9,1.3
	C416.2,394.9,416.1,394.8,416,394.8z M422.3,402.5l0-10.7c0-0.6,0.1-1.1,0.4-1.6c0.3-0.5,0.5-1.5,1-1.7
	C427.7,393.3,425.1,397.7,422.3,402.5L422.3,402.5z M364.1,286.1c0-0.9,0.5-1.3,1.4-1.3s1.8-0.5,1.8,0.4s-0.3,2.3-1.2,2.3
	S364.1,287,364.1,286.1L364.1,286.1z M376.8,285.9c1.5-0.4,5,1.7,5,2.6c0,3.7-3.2,4.3-6.6,4.7C375.1,290.4,372,287.1,376.8,285.9
	L376.8,285.9z M459.1,280.8c0.2-0.6,0.5-1.2,0.8-1.8c0.4-0.2,0.8,0.7,1,1s-0.1,1.6-0.1,2s-0.9,0.7-1.2,0.6S459.1,281.1,459.1,280.8
	L459.1,280.8z M467.7,282.9c0-1.7,1.3-3,2.9-3.1c0,0,0.1,0,0.1,0h1l1.7,2.6l-1.7,4.3h-3.9L467.7,282.9z M544.7,238.6
	c-28.8,3.5-58,4.1-87,5.8c-30.1,1.7-61.5,2.2-91.5-0.6c-14.1-1.3-28-5-41.8-8.1c-12.2-2.8-29.6-4.1-40.7-10.2
	c0.2-0.7,0.2-0.6,0.4-1.3c34.9,0,68.9,24.9,104.3,12.8c15.9-5.4,32.4-8.2,49-11c14.4-2.4,31.1-2.4,44.9-6c3.7,3.6,14.6,7.7,33.8,7.7
	c1.4,0,34-3.1,35.5-3.1c13.8-0.6,23.3-2.9,44.7-5.5c3.4-0.5,6.9-0.8,10.3-1c-7.8,2.9-15.7,8.1-23,11C571,234.1,558,237,544.7,238.6
	L544.7,238.6z"/>
<path d="M454,374.7l-1.5-2.6c3.6-2.1,13.2-8.9,14.7-14.3c1.7-6.2-0.2-13.2-0.2-13.2c-1.7-3.2-3.6-6.2-5.8-9.1
	c-2.6-3.4-6.7-6.8-7.3-8c-0.8-1.5-0.9-4.1-1.1-6.6c-0.1-1.4-0.1-5.5-0.8-6.3c-2.4-2.9-8.6-9.5-10.7-12.8c-2.9-4.5-3.1-21.7-3.2-24
	l4.1-0.3c0.5,8.1,0.8,22.1,2.7,24.9c2.1,3.2,6,7.9,8.3,10.7c1.5,2.3,2.4,4.9,2.6,7.6c0.1,1.9,0.2,4.3,0.7,5.3s3.1,4.3,5.3,7.2
	c3.9,5,7.5,9.9,7.5,9.9c1.9,4.9,2.1,10.3,0.7,15.4C468,366.3,454.6,374.4,454,374.7z"/>
</svg>
