<?xml version="1.0" encoding="UTF-8" standalone="no"?>

<svg
   xmlns="http://www.w3.org/2000/svg"
   version="1.1"
   viewBox="0 0 100 100"
   id="svg6">
  <path
     d="M 2.0982207,98.93009 C 0.62469468,97.596834 0.18820796,96.778194 0.1281506,95.231197 0.10217055,94.565619 0.04692829,93.883244 0.00536903,93.715275 c -0.06464145,-0.260353 0.41983446,-0.306544 3.35607187,-0.32964 3.3485122,-0.021 5.2081901,-0.226758 7.5443371,-0.827249 2.217712,-0.566895 2.849154,-0.667677 6.167428,-0.970022 3.823091,-0.346437 4.494851,-0.369532 4.494851,-0.146973 0,0.461915 -3.63095,3.928171 -6.34067,6.052772 -0.60198,0.472414 -1.169775,0.65928 -2.96297,0.978421 -0.919927,0.167969 -2.23703,0.43462 -2.92706,0.604689 C 7.9930384,99.409012 5.8395415,99.472 5.1560216,99.20325 4.8010114,99.056277 4.9269428,98.953396 5.9900419,98.489381 6.6787274,98.189135 7.640947,97.586546 8.1283774,97.151926 8.615745,96.717306 9.1920435,96.36037 9.4090899,96.36037 c 0.2170464,0 0.6314421,-0.188964 0.9208731,-0.401026 0.28943,-0.22046 0.774928,-0.49341 1.078889,-0.604689 0.640409,-0.235158 0.933284,-0.785257 0.543016,-1.020414 -0.389428,-0.233057 -3.4339787,-0.04199 -5.0187788,0.327541 -1.7204541,0.392628 -2.9270608,0.881838 -2.9270608,1.184183 0,0.340137 -1.0619231,1.25347 -1.6617406,1.429838 -0.5020039,0.146973 -0.5039988,0.146973 -0.1045335,0.478712 0.2310529,0.188966 0.3793903,0.518606 0.342768,0.768459 -0.04582,0.310744 0.1012365,0.518605 0.5072326,0.70967 0.6224965,0.293947 0.9104358,0.776856 0.4632815,0.776856 -0.1533142,0 -0.8082753,-0.47871 -1.4554247,-1.064503 z m 9.8139163,0.923831 c 0.15092,-0.06299 0.33124,-0.04199 0.400705,0.01596 0.06949,0.06299 -0.05403,0.104985 -0.274395,0.104985 -0.243548,-0.01 -0.293105,-0.06304 -0.12631,-0.125981 z m 1.293586,-0.08398 c -0.346359,-0.125977 -0.0887,-0.146972 0.763778,-0.06299 0.790321,0.06299 1.459456,0.02078 1.734985,-0.125978 0.246676,-0.125976 1.40824,-0.310743 2.581207,-0.407325 2.572175,-0.21206 4.432483,-0.772658 4.432483,-1.339554 0,-0.426222 -0.084,-0.430422 -2.090646,-0.08398 -0.771569,0.125977 -1.696978,0.146973 -2.404184,0.04199 l -1.149868,-0.167969 1.358934,-0.671877 c 2.445973,-1.207279 5.90221,-4.178654 7.000041,-6.016238 0.325003,-0.543801 0.882151,-1.291263 1.238127,-1.658697 1.254947,-1.297562 7.325736,-5.488395 7.585496,-5.236231 0.0546,0.06299 0.0089,0.264552 -0.101636,0.468214 -0.934775,1.732183 -1.889476,13.035673 -1.100709,13.035673 0.08588,0 0.162533,-0.392628 0.169882,-0.873439 0.01906,-1.224076 0.45671,-2.109274 1.61086,-3.260073 0.839081,-0.837747 0.942922,-1.022514 0.659582,-1.175786 -0.461728,-0.249853 -0.422565,-0.564796 0.07014,-0.564796 0.224438,0 0.562943,0.256153 0.756282,0.577395 0.192562,0.314942 0.885867,0.858743 1.540849,1.209378 0.654982,0.348536 1.364163,0.82095 1.575855,1.047708 0.392808,0.419923 0.947435,0.556398 0.947435,0.233058 0,-0.104981 -0.635054,-0.684475 -1.411179,-1.297563 -0.776168,-0.615188 -1.958227,-1.679692 -2.626774,-2.365637 l -1.215616,-1.247171 0.118015,-2.360598 c 0.08337,-1.669194 0.207051,-2.447102 0.420989,-2.654754 0.264589,-0.256154 0.289557,-0.243555 0.197182,0.104981 -0.08967,0.331739 0.338841,0.606788 2.780697,1.780474 1.587698,0.764259 3.006438,1.404643 3.153221,1.425638 0.146574,0.021 0.410595,0.237257 0.586799,0.480813 0.176181,0.243555 0.518887,0.443018 0.761551,0.443018 0.242666,0 1.040273,0.319142 1.772448,0.70967 0.732175,0.390529 1.466975,0.709671 1.632825,0.709671 0.165893,0 0.455701,0.228857 0.644041,0.506007 0.265009,0.392628 0.520652,0.506008 1.130276,0.506008 0.818712,0 1.035612,-0.275051 1.042793,-1.326958 0.0071,-1.020413 0.494843,-1.47183 2.7198,-2.51135 1.207866,-0.562696 2.441562,-1.026712 2.741639,-1.024612 0.339954,8.4e-4 0.9038,-0.304444 1.49652,-0.810452 0.577412,-0.49341 1.075425,-0.76426 1.267672,-0.692873 0.326073,0.125977 0.585034,-0.08398 1.770159,-1.408842 0.419939,-0.468214 0.808023,-0.726467 0.993087,-0.65718 0.475126,0.167969 0.362718,0.594191 -0.126623,0.468215 -0.316541,-0.08398 -0.413178,-0.021 -0.365553,0.216259 0.100167,0.503908 1.270213,0.694973 2.841175,0.464016 0.772325,-0.10498 1.733494,-0.241456 2.136026,-0.285548 3.16183,-0.350636 6.000695,-3.200234 6.233575,-6.259793 0.04872,-0.640384 0.154343,-1.165287 0.234455,-1.165287 0.412295,0 4.999248,2.129009 5.448839,2.528777 0.287477,0.256153 0.725161,0.524903 0.972634,0.59839 0.247496,0.06299 1.709242,1.392045 3.248348,2.932533 2.48272,2.485315 2.862383,2.959199 3.365521,4.201961 0.311899,0.770559 0.56708,1.738482 0.56708,2.152526 0,0.537501 0.167783,0.934329 0.596899,1.398344 l 0.596898,0.646682 0.144264,-0.745365 c 0.08147,-0.422022 0.266961,-0.745363 0.426071,-0.745363 0.154973,0 0.335901,-0.146973 0.402111,-0.304444 0.174922,-0.443019 0.988364,-0.38003 1.11377,0.08398 0.106886,0.396827 0.422502,0.554298 2.245011,1.129593 0.566513,0.188965 1.587215,0.730666 2.26811,1.228275 0.680979,0.495509 1.320065,0.902834 1.420189,0.902834 0.100165,0 0.500428,0.667679 0.889583,1.484429 0.389155,0.816751 0.912095,1.669194 1.162025,1.893853 0.342831,0.310743 2.320818,3.77154 2.323758,4.067377 0.0016,0.146972 -84.857254,-0.01699 -85.300335,-0.167971 z m 21.05997,-8.523389 c 0.141744,-0.146973 0.310513,-0.212061 0.374896,-0.146973 0.06426,0.06299 -0.05165,0.167969 -0.257847,0.251954 -0.297956,0.10498 -0.321979,0.08398 -0.116966,-0.104981 z m 10.023278,-3.522106 c -0.413221,-0.10498 -0.868082,-0.317041 -1.010875,-0.455615 -0.321979,-0.312843 -1.563843,-0.33174 -1.757748,-0.021 -0.07875,0.125977 -0.201801,0.146973 -0.273682,0.04199 -0.07182,-0.104981 -0.964718,-0.705471 -1.984138,-1.356352 -1.0194,-0.650881 -1.898548,-1.352152 -1.953629,-1.553715 -0.05501,-0.212061 -0.303898,-0.419923 -0.552926,-0.480812 -0.474411,-0.104981 -1.180274,-1.081302 -1.180274,-1.616704 0,-0.335938 -0.639653,-1.482329 -1.3742,-2.462219 C 33.951,79.486177 33.42384,78.572844 33.030065,77.793887 32.63627,77.01283 32.06604,76.011313 31.762855,75.564935 c -0.708026,-1.041409 -1.671862,-4.31135 -1.728517,-5.865066 -0.04242,-1.163187 -0.021,-1.215677 0.605781,-1.520121 0.446671,-0.216261 0.685473,-0.503908 0.764114,-0.919632 0.063,-0.33384 0.345162,-1.085502 0.627201,-1.667095 0.501163,-1.03511 0.533313,-1.060306 1.415442,-1.064505 0.751221,-0.0038 1.090376,-0.146973 2.021434,-0.888138 0.738264,-0.581593 1.409038,-0.92803 1.972043,-1.016213 0.936433,-0.146974 1.040505,-0.310743 0.487368,-0.778958 -0.701873,-0.594192 -1.332727,-0.823049 -1.586837,-0.575294 -0.174293,0.167968 -0.114445,0.258253 0.231515,0.346436 0.388588,0.104981 0.683772,0.476613 0.372104,0.476613 -0.314776,0 -1.362967,-0.589992 -1.943675,-1.095999 -0.529239,-0.459816 -0.678774,-0.751663 -0.676275,-1.318559 0.0016,-0.401026 0.08946,-0.858743 0.194662,-1.020413 0.125784,-0.188966 0.153083,-0.01554 0.07937,0.516505 -0.09344,0.676076 -0.01837,0.919632 0.45106,1.459233 0.605362,0.697072 1.153186,0.850344 1.153186,0.323341 0,-0.214161 0.113604,-0.283448 0.330714,-0.212062 0.181851,0.06299 0.404148,0.125978 0.493919,0.125978 0.323365,0 1.667347,1.165286 1.52069,1.320658 -0.08252,0.08398 0.232543,0.10498 0.700234,0.02078 0.467671,-0.06299 1.148524,-0.04199 1.512942,0.06299 0.402993,0.104981 0.709474,0.104981 0.782279,-0.0038 0.06573,-0.104981 0.640955,-0.188965 1.278024,-0.188965 1.005037,0 1.337452,-0.104981 2.511069,-0.848245 0.743976,-0.466115 1.493202,-1.110697 1.664975,-1.434037 0.427415,-0.799954 0.183742,-1.740582 -0.627872,-2.421487 -0.359904,-0.302345 -0.54669,-0.554299 -0.415131,-0.558498 0.471471,-0.01637 1.537846,1.158988 1.537846,1.694389 0,0.289748 0.09408,0.527004 0.209151,0.527004 0.623,0 -0.363411,2.151477 -1.196003,2.608773 -0.351608,0.188965 -0.349088,0.222559 0.0462,0.520705 0.279099,0.212061 0.649355,0.279249 1.113434,0.212061 0.393313,-0.06299 0.820686,-0.01365 0.983932,0.125976 0.158754,0.125977 0.374225,0.188966 0.478885,0.125977 0.104576,-0.06299 0.358559,0.06299 0.564224,0.285548 0.230486,0.247755 0.642235,0.401027 1.073305,0.401027 0.895421,0 0.913921,-0.419924 0.06636,-1.505425 -0.34176,-0.43672 -0.621384,-0.904934 -0.621384,-1.037209 0,-0.125978 -0.362339,-0.686575 -0.805188,-1.230375 -0.442871,-0.541701 -0.865792,-1.232475 -0.939835,-1.526421 -0.116545,-0.466114 -0.07832,-0.524904 0.282543,-0.43252 0.229436,0.06299 0.417125,0.27085 0.417125,0.472413 0,0.485011 1.457881,2.617591 2.854404,4.175295 0.614832,0.686575 1.117864,1.360551 1.117864,1.501226 0,0.146972 0.211672,0.535401 0.470401,0.881838 1.288062,1.717486 1.871458,3.77049 1.936871,6.817662 0.02772,1.287064 0.113815,2.621159 0.191301,2.963607 0.09113,0.401026 0.04452,0.724368 -0.131244,0.909133 -0.149724,0.16797 -0.376429,0.466115 -0.503746,0.684475 -0.127255,0.218361 -0.369248,0.424123 -0.537661,0.455617 -0.548223,0.10498 -1.079058,-1.589409 -0.589802,-1.883356 0.288507,-0.167968 0.249323,-1.52642 -0.05964,-2.059722 -0.139643,-0.241456 -0.630244,-0.728567 -1.090208,-1.081303 -0.459944,-0.352735 -0.904598,-0.81885 -0.988028,-1.035109 -0.213161,-0.5522 -0.721885,-0.686575 -1.662139,-0.445119 -0.915497,0.237256 -1.271788,-0.0063 -0.663592,-0.453517 0.435857,-0.319142 1.773476,-0.388429 2.323547,-0.125977 0.711806,0.348536 1.948189,0.835647 2.122797,0.835647 0.09764,0 0.241552,-0.577394 0.31971,-1.287064 0.124945,-1.131693 0.07917,-1.404643 -0.38149,-2.279554 -0.287981,-0.5438 -0.680454,-1.337454 -0.872196,-1.753178 -0.409398,-0.892337 -0.784756,-0.959524 -1.276681,-0.233058 -0.28523,0.422023 -0.306943,0.60259 -0.109405,0.909134 0.135654,0.212061 0.24655,0.474513 0.24655,0.585793 0,0.279249 -2.033592,0.146973 -2.343917,-0.16797 -0.136704,-0.125977 -0.693808,-0.241455 -1.237979,-0.241455 -0.805819,0 -1.014024,0.08398 -1.122127,0.405226 -0.143424,0.43672 -0.420213,0.527003 -0.627201,0.209961 -0.219608,-0.344337 -0.520924,-0.224659 -0.769784,0.304445 -0.270405,0.573195 -0.626843,0.646681 -1.007325,0.21206 -0.386719,-0.451416 -0.821148,-0.369532 -1.043822,0.188966 -0.167573,0.426222 -0.29195,0.485011 -0.826439,0.38003 -0.418533,-0.08398 -0.935026,0.01721 -1.542593,0.293947 -0.50234,0.228857 -1.515796,0.478712 -2.25215,0.556398 -0.801556,0.08398 -1.506558,0.283448 -1.756887,0.495509 -0.229962,0.188966 -0.761847,0.413624 -1.181933,0.487111 -0.718001,0.125976 -1.196885,0.594191 -0.829065,0.814651 0.598137,0.359034 3.8716,0.445119 8.178299,0.21836 2.187893,-0.125977 2.192724,-0.125977 -0.618927,0.841945 -1.091952,0.373732 -3.351242,0.409426 -4.210524,0.06299 -0.330273,-0.125977 -0.8605,-0.188966 -1.17832,-0.125977 -1.19846,0.224659 -2.203853,0.522804 -2.398304,0.70967 -0.244052,0.237256 0.232585,1.196781 0.98368,1.982037 0.287709,0.300245 0.523129,0.613088 0.523129,0.694973 0,0.251953 1.723142,0.43462 1.957344,0.212061 0.119275,-0.125977 0.602695,-0.212061 1.074166,-0.212061 0.47145,0 0.959994,-0.104981 1.085631,-0.22046 0.165263,-0.167969 0.358727,-0.146972 0.699164,0.021 0.260641,0.125976 0.830471,0.188965 1.276849,0.146973 0.638498,-0.08398 0.806133,-0.04199 0.806133,0.212061 0,0.167969 0.239179,0.713869 0.531486,1.196781 0.499862,0.827248 0.590033,0.881839 1.515714,0.915432 1.646411,0.06299 2.919081,-0.146973 3.421799,-0.581594 0.30394,-0.258252 0.42878,-0.251953 1.008985,0.04199 0.592299,0.298145 0.712603,0.300245 1.14069,0.02079 0.496145,-0.314943 0.953022,-0.125977 0.953022,0.394727 0,0.125978 0.141114,0.352737 0.3136,0.491311 0.38317,0.308643 0.406941,0.888137 0.0483,1.177884 -0.145944,0.125977 -0.743388,0.249855 -1.327645,0.296046 -1.112342,0.08398 -2.535218,0.755861 -1.60666,0.755861 0.769511,0 1.051969,0.188966 0.95865,0.669778 -0.111506,0.562697 -0.921587,0.963724 -1.414183,0.697073 -0.27618,-0.146974 -0.515528,-0.04199 -1.055351,0.461915 -0.68228,0.640382 -0.883494,0.673976 -1.822866,0.300244 -0.251779,-0.10498 -0.365868,-0.04199 -0.365868,0.146974 0,0.167969 -0.141113,0.413624 -0.3136,0.552198 -0.436528,0.350636 -0.394362,0.508107 0.209151,0.774759 0.380567,0.16797 0.522667,0.388429 0.522667,0.812551 0,0.629884 0.554103,1.251371 1.114064,1.251371 0.431657,0 0.456289,-0.472414 0.042,-0.806252 -0.268074,-0.21836 -0.252346,-0.352736 0.123055,-1.064506 l 0.430439,-0.81885 0.440939,0.428322 0.440917,0.428321 -0.459439,0.474513 c -0.555026,0.575295 -0.568654,0.728567 -0.09366,1.075004 0.343125,0.249854 0.336637,0.285547 -0.104575,0.592091 -0.406206,0.281349 -0.662395,0.911234 -0.370571,0.911234 0.05501,0 0.615127,-0.270851 1.24493,-0.600491 0.629825,-0.329639 1.408093,-0.592091 1.729547,-0.581593 2.141906,0.06299 4.2983,-0.799953 7.510108,-3.002871 0.704519,-0.482911 1.369287,-0.879738 1.477243,-0.879738 0.216249,0 4.258822,-3.376182 4.502201,-3.759991 0.08357,-0.125978 0.412863,-0.392629 0.731735,-0.579494 0.943782,-0.5522 -3.246878,3.252514 -5.064977,4.598578 -0.919927,0.680275 -2.197553,1.761577 -2.839285,2.40175 -0.641711,0.640382 -1.58249,1.385746 -2.090647,1.656596 -0.508177,0.270851 -1.4465,0.776858 -2.085123,1.121195 -0.638625,0.344337 -1.814635,0.781057 -2.613335,0.970022 -1.650842,0.38633 -4.894674,0.482913 -6.014764,0.167969 z M 79.63251,78.507341 c -0.576635,-0.438819 -0.988279,-0.524904 -0.988279,-0.212061 0,0.428321 -0.544653,0.16797 -1.277961,-0.608888 -0.843744,-0.894436 -1.046511,-0.959525 -1.527242,-0.49551 -0.295605,0.287647 -0.530458,0.212061 -2.50078,-0.814651 l -2.174664,-1.131692 0.156653,-0.65508 c 0.0861,-0.361134 0.302576,-0.988919 0.480899,-1.396245 0.289536,-0.661379 0.29046,-0.787355 0.0087,-1.177884 -0.275801,-0.38213 -0.277439,-0.480812 -0.01292,-0.778957 0.570608,-0.644583 0.610023,-1.0918 0.139434,-1.576812 -0.382897,-0.394727 -0.451795,-0.724367 -0.476322,-2.271573 -0.03444,-2.169953 -0.311941,-2.258977 -0.979985,-0.312844 -0.247852,0.722268 -0.498581,1.266069 -0.557189,1.209379 -0.05859,-0.06299 0.04515,-0.535402 0.230549,-1.062406 0.447574,-1.272366 0.426092,-1.564213 -0.133344,-1.80147 -0.320488,-0.125976 -0.491063,-0.407325 -0.535203,-0.848244 -0.06195,-0.621487 0.301357,-1.620904 0.514351,-1.415141 0.05628,0.06299 -0.01223,0.277149 -0.152033,0.493409 -0.361142,0.558498 -0.07665,1.444536 0.537723,1.671294 1.050625,0.386329 2.772087,-0.898635 4.472803,-3.340908 1.057806,-1.520121 1.912784,-4.358382 1.312337,-4.358382 -0.09576,0 -0.506393,0.680276 -0.912327,1.513823 -0.405995,0.831448 -0.793345,1.459233 -0.860899,1.394145 -0.161483,-0.146974 1.60769,-3.563678 2.024416,-3.898776 0.177652,-0.146973 0.421766,-0.212062 0.542596,-0.125978 0.120744,0.06299 0.275381,-0.04199 0.343439,-0.235157 0.101636,-0.302344 0.852457,-2.214044 1.277961,-3.254613 0.124525,-0.304444 -0.599334,-0.344337 -0.903317,-0.04199 -0.139853,0.125976 -0.445096,-0.04199 -0.919128,-0.506008 -0.390289,-0.390528 -0.87646,-0.70967 -1.080341,-0.70967 -0.640324,0 -2.056124,-0.829348 -2.056124,-1.20308 0,-0.188966 -0.23962,-0.457716 -0.532494,-0.589992 -1.276134,-0.562696 -2.50582,-0.04199 -2.731979,1.152689 -0.07686,0.407325 -0.267634,0.917532 -0.423783,1.140091 -0.198231,0.279249 -0.283949,1.0918 -0.283949,2.694437 0,1.69229 -0.08652,2.4576 -0.329013,2.911957 -0.448918,0.841946 -0.61036,0.600489 -0.181643,-0.270851 0.300392,-0.610988 0.31799,-1.047708 0.139854,-3.468774 -0.112134,-1.524321 -0.300769,-2.884453 -0.419436,-3.024497 -0.657732,-0.774758 -1.027148,-3.87442 -0.579721,-4.864179 0.08819,-0.188965 0.09933,-0.594191 0.02436,-0.881838 -0.07476,-0.289748 -0.04809,-0.629886 0.05964,-0.760062 0.116125,-0.146973 0.124944,-0.644581 0.02142,-1.247171 -0.253942,-1.478129 -0.22259,-1.963141 0.07812,-1.209379 0.618423,1.549517 2.440512,3.901086 2.440512,3.150684 0,-0.241456 -0.43571,-1.020413 -0.993088,-1.774176 -0.273575,-0.369532 -0.4704,-0.934329 -0.4704,-1.350053 0,-0.5459 -0.150143,-0.833547 -0.643244,-1.234573 -0.404568,-0.32964 -0.525313,-0.524904 -0.325549,-0.524904 0.615568,0 0.536611,-0.363234 -0.182271,-0.837746 -0.400012,-0.264552 -0.727912,-0.545901 -0.72871,-0.625687 -0.0023,-0.258252 2.374366,0.718069 3.343682,1.373149 1.320947,0.892337 1.686877,0.991018 1.820809,0.49551 0.132504,-0.49131 0.148883,-0.49131 0.810648,-0.06299 0.389659,0.247754 0.58703,0.27505 0.761259,0.104981 0.314818,-0.304444 -0.298985,-0.959524 -1.406518,-1.499126 -0.459943,-0.224659 -0.97736,-0.522804 -1.149868,-0.661379 -0.172402,-0.146973 -1.160303,-0.407325 -2.195243,-0.592091 -1.034897,-0.188966 -2.087496,-0.380031 -2.339296,-0.432521 -0.251674,-0.04199 -0.519433,0.004 -0.595009,0.125977 -0.09156,0.146973 -0.21776,0.125977 -0.378677,-0.06299 -0.510655,-0.59839 -2.016772,-0.785256 -6.172046,-0.766359 -4.916094,0.021 -7.410364,0.249854 -10.88319,0.98472 -1.337368,0.283447 -0.956907,0.592091 0.91621,0.743263 0.982274,0.08398 1.786034,0.226759 1.786034,0.32754 0,0.104981 0.240755,0.188966 0.535014,0.188966 0.309149,0 0.479577,0.08398 0.403686,0.212061 -0.07224,0.10498 -0.19991,0.167969 -0.283655,0.10498 -0.08378,-0.04199 -0.28817,-0.0099 -0.454209,0.08398 -0.240419,0.146972 -0.249028,0.230958 -0.04221,0.43252 0.3876,0.375831 0.314419,0.718068 -0.180593,0.844045 -0.628754,0.16797 -0.370277,0.642483 0.354087,0.661379 0.334809,0.009 0.84391,0.212062 1.131367,0.451418 0.287477,0.239356 0.757878,0.625685 1.045333,0.860842 l 0.522668,0.424122 -0.731734,-0.146973 c -0.402447,-0.08398 -1.110116,-0.146972 -1.572684,-0.125977 -1.051402,0.021 -2.884012,0.76846 -2.765788,1.112797 0.04767,0.146973 0.664537,0.405225 1.370799,0.589992 2.232622,0.585793 3.504325,1.261868 4.144167,2.197667 0.318787,0.466115 0.809052,0.936429 1.089579,1.037211 0.737992,0.27295 0.431909,0.422023 -0.333403,0.167969 -0.451753,-0.146974 -0.879776,-0.146974 -1.433375,-0.0061 -1.018623,0.27295 -1.174373,0.125977 -0.199492,-0.188965 0.839565,-0.268751 0.905943,-0.417824 0.379874,-0.852444 -0.83339,-0.688675 -2.527239,-1.051908 -3.071324,-0.661379 -0.2232,0.167969 -0.756996,0.291846 -1.186217,0.291846 -1.192307,0 -2.863434,0.432521 -3.243517,0.839846 -0.314293,0.335939 -0.314293,0.417824 1.09e-4,1.060306 0.187312,0.38213 0.340374,0.749563 0.340374,0.81675 0,0.230958 -1.063099,0.125978 -1.836054,-0.188964 l -0.777281,-0.314943 0.503034,-0.367433 c 0.661345,-0.48501 0.460508,-1.028811 -0.379601,-1.028811 -0.341781,0 -0.679572,0.08398 -0.750632,0.212061 -0.237522,0.371632 -0.522668,0.209961 -0.522668,-0.300245 0,-0.27715 0.114235,-0.917532 0.253816,-1.423539 0.193192,-0.699172 0.330567,-0.888138 0.574934,-0.789456 0.80124,0.323341 1.05346,0.317042 1.18882,-0.021 0.185212,-0.468214 -0.502949,-0.959524 -1.128994,-0.810452 -0.486548,0.125977 -0.550449,0.0038 -0.47859,-0.856643 0.02094,-0.251954 -0.06279,-0.455617 -0.185841,-0.455617 -0.314714,0 -0.280024,-0.917531 0.04452,-1.179983 0.147624,-0.125977 0.829758,-0.243556 1.515714,-0.277149 0.935403,-0.04199 1.247218,-0.146974 1.247218,-0.363234 0,-0.167969 -0.188151,-0.335938 -0.418133,-0.375831 -0.923875,-0.16797 -1.16568,-0.841946 -0.301252,-0.841946 0.223198,0 0.405785,-0.146973 0.405785,-0.304445 0,-0.167968 -0.135654,-0.304444 -0.301252,-0.304444 -0.678753,0 -0.490434,-0.401026 0.295226,-0.629884 0.46326,-0.125977 0.842335,-0.319142 0.842335,-0.411525 0,-0.317042 -1.055434,-0.422022 -1.686709,-0.167969 -0.544548,0.21836 -0.615671,0.331739 -0.507673,0.808352 0.144684,0.638283 -0.404064,1.352152 -0.806932,1.045608 -0.131454,-0.104981 -0.803696,-0.167968 -1.493601,-0.167968 -1.133739,0.0191 -1.260804,0.06299 -1.321261,0.476612 -0.08798,0.602589 -0.417252,0.583693 -0.660106,-0.04199 -0.27704,-0.705471 -0.897794,-0.984721 -1.554666,-0.692874 -0.413262,0.188966 -0.601581,0.167969 -0.864133,-0.04199 -0.440981,-0.354835 -0.713044,0.02079 -0.72199,1.020413 -0.01092,1.211478 -0.311689,1.343755 -0.71714,0.312843 -0.352112,-0.894436 -0.956822,-1.459232 -1.252909,-1.173685 -0.07896,0.08398 -0.224354,0.01197 -0.323323,-0.146973 -0.152663,-0.239356 -0.807246,-0.245655 -4.31174,-0.04199 -2.27252,0.125977 -4.209054,0.293947 -4.30355,0.350636 -0.09449,0.06299 -0.171982,0.212062 -0.171982,0.32544 0,0.214161 3.330453,0.125978 5.65862,-0.146972 0.726946,-0.08398 1.039874,-0.021 1.449734,0.291846 0.405807,0.312843 0.466767,0.457716 0.272673,0.644582 -0.280674,0.27295 -0.150143,1.192581 0.283467,1.998834 0.152663,0.283448 0.278153,0.621486 0.278847,0.751663 6.3e-4,0.125977 0.117804,0.275049 0.260451,0.321241 0.161483,0.04199 0.233929,0.367432 0.192141,0.837746 -0.07622,0.856643 0.151194,1.192582 1.270444,1.879156 0.750423,0.459816 1.063015,1.083402 0.542196,1.083402 -0.134604,0 -0.422669,0.146973 -0.639967,0.346437 -0.280548,0.245655 -0.438083,0.279249 -0.543394,0.10498 -0.297346,-0.466115 -1.365506,-0.663479 -3.59819,-0.663479 -2.249001,0 -2.28659,0.0078 -2.651973,0.548 -0.203901,0.302345 -0.370697,0.81885 -0.370697,1.14849 0,0.335938 -0.129564,0.642482 -0.294639,0.694973 -0.20747,0.06299 -0.253626,-0.0084 -0.155813,-0.256153 0.07622,-0.188966 0.0422,-0.936429 -0.07601,-1.652397 -0.239683,-1.455034 -0.102686,-1.91485 0.78547,-2.641527 0.673188,-0.547999 0.511559,-1.083402 -0.328719,-1.083402 -0.333067,0 -0.831018,0.167969 -1.106567,0.354835 -0.27555,0.188966 -0.688077,0.457717 -0.916756,0.579494 -0.375548,0.212061 -0.408643,0.401026 -0.342454,2.026129 0.04032,0.98892 0.162323,2.208376 0.271329,2.709974 0.108986,0.501808 0.189622,1.293363 0.179122,1.759478 -0.0113,0.506007 0.271666,1.606206 0.703805,2.735169 1.003063,2.620951 1.879207,7.460145 1.350723,7.460145 -0.09576,0 -0.174082,-0.306544 -0.174082,-0.682376 0,-2.303278 -1.404061,-7.400935 -2.230311,-8.097587 -0.26818,-0.226759 -0.487599,-0.60469 -0.487599,-0.841946 0,-0.237257 -0.117594,-0.571095 -0.261333,-0.741165 -0.540516,-0.642481 -4.75482,-3.145224 -7.4742,-4.439216 -1.552285,-0.739064 -3.104706,-1.572612 -3.44951,-1.85186 C 14.847836,45.146117 13.561789,44.36716 12.334814,43.695282 7.7571936,41.189402 4.8106037,38.41266 3.399466,35.276465 3.0107522,34.411423 2.7398851,33.65976 2.7975486,33.600971 c 0.2338456,-0.226758 0.7802625,0.188966 1.3074233,0.98472 0.701873,1.064506 2.8138757,2.698217 3.8331708,2.963608 0.4254411,0.10498 1.765329,0.348536 2.9774583,0.529102 3.025547,0.451418 10.716458,0.335939 12.100716,-0.188965 0.531718,-0.188966 2.347067,-0.472413 4.271841,-0.642482 1.840947,-0.16797 3.87097,-0.386329 4.511021,-0.495509 0.640115,-0.104982 2.95142,-0.43672 5.136164,-0.730667 3.702556,-0.495508 4.559948,-0.703371 4.231103,-1.020413 -0.07224,-0.06299 -1.853589,0.125977 -3.958326,0.426222 -3.766183,0.543801 -10.87038,0.963724 -12.155313,0.718068 l -0.592677,-0.10498 0.415361,-0.512306 c 0.238612,-0.293946 0.466705,-0.974222 0.536043,-1.595709 0.06636,-0.59629 0.722411,-3.465205 1.457882,-6.375482 0.735429,-2.910697 1.727258,-6.93293 2.204062,-8.939323 0.476743,-2.007232 1.192622,-4.96916 1.590786,-6.585024 0.398184,-1.616704 0.964718,-3.9243918 1.258998,-5.1299911 0.294239,-1.2051793 0.751242,-2.6658819 1.015621,-3.2449559 0.478674,-1.0498077 0.486401,-1.054007 1.924943,-1.4067424 3.760514,-0.9196317 10.19568,-2.02612903 12.629473,-2.17541169 2.453111,-0.14697309 2.844324,-0.12597693 6.376578,0.51650542 2.069795,0.37163197 4.368228,0.77895747 5.108024,0.90703397 1.263011,0.2162603 2.226322,0.5291031 7.445432,2.4101487 2.512539,0.9070339 4.401406,2.244909 5.703978,4.0442795 0.862789,1.1925817 1.375544,2.5035815 1.990776,5.0917775 0.284978,1.198881 0.400325,1.937945 0.681105,4.356492 0.05165,0.445119 0.178702,1.266069 0.282247,1.824566 0.827406,4.453705 0.804161,5.309299 -0.144472,5.315177 -0.318137,0.0023 -1.189934,0.146973 -1.937354,0.310743 -0.74742,0.16797 -1.829334,0.398927 -2.404184,0.512306 -2.228632,0.438821 -4.495062,1.144291 -4.495062,1.400444 0,0.38213 0.473739,0.32964 2.927061,-0.32544 4.008093,-1.066605 7.23523,-1.505425 10.214579,-1.385747 4.464613,0.188966 8.671357,1.184184 12.328346,2.945761 5.705658,2.747768 8.517227,6.958966 8.436797,12.636117 -0.03953,2.766663 -3.248766,10.004248 -5.42994,12.245797 -0.527476,0.541701 -0.820916,0.697073 -1.158624,0.608889 -0.248776,-0.06299 -0.593433,-0.125977 -0.76592,-0.125977 -0.421766,-0.0053 -1.03916,-1.096 -0.904052,-1.595707 0.08042,-0.298146 -0.05775,-0.485012 -0.539152,-0.726468 -0.761362,-0.38213 -0.839332,-0.823049 -0.177021,-1.001517 0.460089,-0.125976 0.455029,-0.146973 -0.231452,-0.749562 -0.498224,-0.44092 -0.835847,-0.589992 -1.163706,-0.510206 -0.560213,0.125976 -1.332559,-0.350636 -1.587298,-0.999418 -0.118015,-0.300245 -0.454589,-0.5459 -0.921587,-0.669777 -1.177355,-0.314942 -2.629294,-1.387846 -2.629294,-1.940045 0,-0.596291 -2.185374,-0.188965 -2.618794,0.501808 -0.212154,0.331739 0.294512,0.953225 0.888555,1.0918 0.319248,0.06299 0.956739,0.306544 1.416702,0.518605 0.459943,0.212062 1.024461,0.451418 1.2544,0.529104 0.364629,0.125976 0.338212,0.167969 -0.20642,0.266651 -0.803698,0.146972 -0.912746,0.684474 -0.206001,0.995217 0.728185,0.321241 0.665797,1.278666 -0.09471,1.450835 -0.665691,0.146973 -0.776314,0.527003 -0.237269,0.806252 0.236954,0.125978 0.430838,0.16797 0.430838,0.08398 0,-0.08398 0.190462,0.021 0.423069,0.230958 0.32433,0.283449 0.480479,0.314943 0.669009,0.125978 0.330672,-0.321242 0.580456,-0.300246 0.580456,0.04199 0,0.146973 0.273576,0.37583 0.607945,0.48921 0.334368,0.104981 0.818922,0.482912 1.076853,0.820949 0.536611,0.703372 1.742188,1.04141 3.721876,1.04141 1.092582,0 1.247366,0.06299 1.662224,0.598391 0.559205,0.732766 0.565274,0.81885 0.05796,0.81885 -0.624722,0 -2.568396,0.787356 -3.237007,1.310159 -0.336321,0.262453 -0.556119,0.598391 -0.494822,0.751663 0.06069,0.146974 0.615209,0.550099 1.232288,0.879739 0.94078,0.503907 1.35003,0.598391 2.533329,0.592092 0.776167,-0.005 1.41118,0.04199 1.41118,0.10498 0,0.06299 -0.408874,0.314942 -0.908631,0.548 -0.867849,0.409425 -0.987397,0.415724 -2.665622,0.146973 -0.966378,-0.146973 -2.072083,-0.38423 -2.457102,-0.508107 -0.476384,-0.146973 -0.768482,-0.167969 -0.91369,-0.021 -0.145103,0.146973 0.08757,0.340137 0.727827,0.623586 0.517691,0.228858 0.99332,0.5459 1.056926,0.70757 0.06636,0.167969 0.590473,0.367433 1.226829,0.470314 0.886497,0.146974 0.413976,0.188966 -2.337827,0.212061 -2.125106,0.01554 -3.549683,-0.06299 -3.711376,-0.188965 -0.144474,-0.125977 -0.526867,-0.16797 -0.849833,-0.104981 -0.403371,0.08398 -0.86808,-0.04199 -1.484277,-0.38003 -1.025406,-0.564796 -1.650128,-0.629885 -1.824273,-0.188966 -0.219483,0.552199 0.109614,1.226176 1.181072,2.413718 0.814595,0.902835 1.006044,1.234574 0.82898,1.442436 -0.170093,0.188966 -0.146154,0.417824 0.09239,0.839847 0.523508,0.92803 0.806365,1.196781 1.742903,1.660796 0.488312,0.241455 0.887841,0.493409 0.887841,0.558497 0,0.245655 -2.018033,-0.188965 -2.927061,-0.617287 -2.5012,-1.20308 -3.277745,-1.623003 -3.713686,-2.007233 -0.314504,-0.277149 -0.543079,-0.348535 -0.681609,-0.21626 -0.138594,0.125977 0.212742,0.673977 1.047371,1.608306 0.690702,0.772658 1.256143,1.511723 1.256542,1.6398 0.0016,0.386328 1.121497,1.585209 2.509599,2.683518 1.050458,0.831448 -0.122634,0.434621 -1.583036,-0.537501 -1.645782,-1.0939 -2.537948,-1.526421 -2.683052,-1.297563 -0.0548,0.08398 0.181013,0.413625 0.524011,0.726467 0.343021,0.312843 0.580477,0.613088 0.527708,0.663479 -0.137124,0.125977 -1.930088,-0.661379 -2.102218,-0.93013 -0.07917,-0.125977 -0.332815,-0.224659 -0.563741,-0.224659 -0.558827,0 -0.389197,0.556399 0.620964,2.026129 1.046194,1.524322 1.049911,1.578911 0.05711,0.804153 -0.556056,-0.432521 -0.940633,-0.606789 -1.06942,-0.480812 -0.316498,0.306544 1.264837,2.612762 2.859444,4.170047 0.784315,0.76636 1.273678,1.381546 1.098105,1.381546 -0.174293,0 -0.732238,-0.409424 -1.240101,-0.911232 -0.938344,-0.928031 -1.870681,-1.25977 -1.56084,-0.558498 0.08609,0.188965 0.203691,0.623586 0.261439,0.955325 0.06405,0.365333 0.506666,0.97842 1.134222,1.570513 1.011988,0.955324 0.939835,1.360551 -0.101005,0.564796 z M 53.137979,76.468612 c 0,-0.125977 0.09408,-0.167969 0.209151,-0.08398 0.115075,0.06299 0.209151,0.16797 0.209151,0.212061 0,0.04199 -0.09408,0.08398 -0.209151,0.08398 -0.115074,0 -0.209151,-0.104981 -0.209151,-0.212061 z m -0.482138,-0.522804 c -0.166943,-0.167969 0.02183,-0.478712 0.28542,-0.478712 0.108145,0 0.196761,0.146973 0.196761,0.304445 0,0.312842 -0.246697,0.403126 -0.482139,0.167969 z M 29.590459,67.872786 c -6.3e-4,-1.003616 0.03465,-1.438236 0.07854,-0.965823 0.04389,0.470314 0.0443,1.291264 0.0016,1.824566 -0.04326,0.533303 -0.07917,0.146973 -0.0798,-0.854544 z m 12.476179,-6.93272 c 0.0039,-0.08398 0.121165,-0.293946 0.261333,-0.468214 0.288003,-0.359035 2.130777,-0.527004 2.330688,-0.214161 0.160853,0.251954 -0.415004,0.419923 -1.333273,0.388429 -0.3964,-0.01365 -0.757059,0.08398 -0.801387,0.21206 -0.08862,0.258253 -0.467986,0.325441 -0.457318,0.08398 z m 28.32985,-1.196781 c -0.109826,-0.568996 -0.04935,-0.862942 0.25768,-1.266068 0.262656,-0.344338 0.44056,-1.003617 0.515652,-1.91275 0.176603,-2.13447 0.479242,-1.979938 0.426303,0.216261 -0.04535,1.881255 -0.24424,2.447311 -0.751599,2.143497 -0.108565,-0.06299 -0.155813,0.247754 -0.108985,0.722268 0.101845,1.03511 -0.143844,1.104397 -0.339051,0.10498 z M 35.794215,58.370136 C 35.67599,58.067792 35.585904,57.668864 35.594094,57.4799 c 0.0081,-0.188966 0.149514,0.01553 0.31444,0.451417 0.164843,0.436719 0.254908,0.835647 0.200121,0.890237 -0.05481,0.06299 -0.196131,-0.146974 -0.31444,-0.451418 z m -0.157072,-2.34527 c 0.113605,-0.556398 0.274773,-1.014115 0.35797,-1.014115 0.08316,0 0.05816,0.455617 -0.05544,1.014115 -0.113605,0.558497 -0.274773,1.014114 -0.357971,1.014114 -0.08316,0 -0.05816,-0.455617 0.05544,-1.014114 z m 1.742019,0.846145 c -0.08001,-0.125977 0.137544,-0.361134 0.503768,-0.543801 0.477329,-0.239356 0.612585,-0.422022 0.521008,-0.701271 -0.134814,-0.411525 0.201171,-0.749563 0.413892,-0.415724 0.07224,0.104981 0.313936,0.212061 0.537114,0.212061 0.223178,0 0.405786,0.104981 0.405786,0.224659 0,0.146973 0.200541,0.167969 0.522667,0.104981 0.410574,-0.104981 0.521995,-0.04199 0.519475,0.230957 -0.0016,0.188966 -0.08042,0.476613 -0.174922,0.621487 -0.224669,0.344337 -3.053056,0.589991 -3.248767,0.279248 z m 36.040709,-0.428322 c 0,-0.720168 0.321286,-0.972122 0.598977,-0.468214 0.129775,0.235157 0.129775,0.49131 1.02e-4,0.715969 -0.30917,0.537501 -0.599083,0.415724 -0.599083,-0.245655 z M 36.833186,55.61964 c 0,-0.104981 0.23519,-0.212061 0.522668,-0.212061 0.287477,0 0.522666,0.08398 0.522666,0.212061 0,0.10498 -0.235189,0.212061 -0.522666,0.212061 -0.287478,0 -0.522668,-0.08398 -0.522668,-0.212061 z m 35.022255,-3.035204 c 0.494086,-0.478713 1.122925,-0.862942 1.545174,-0.940628 0.513617,-0.104981 0.670353,-0.06299 0.562587,0.10498 -0.08211,0.125977 -0.360576,0.235157 -0.618696,0.235157 -0.261901,0 -0.782762,0.312843 -1.178552,0.709671 -0.390079,0.390529 -0.806995,0.70967 -0.92648,0.70967 -0.119484,0 0.157704,-0.363234 0.615945,-0.806253 z m -21.013773,0.401026 c 0,-0.104981 0.09408,-0.212061 0.209151,-0.212061 0.115075,0 0.209151,0.08398 0.209151,0.212061 0,0.104981 -0.09408,0.212062 -0.209151,0.212062 -0.115075,0 -0.209151,-0.08398 -0.209151,-0.212062 z m -12.22797,-0.799954 c -0.07161,-0.220459 -0.03569,-0.568995 0.0798,-0.778957 0.115495,-0.212061 0.154973,-0.581594 0.08778,-0.833547 -0.108146,-0.401026 0.293294,-2.045026 0.499462,-2.045026 0.04389,0 0.283908,0.188966 0.533376,0.409426 0.416413,0.375831 0.430397,0.464015 0.170723,1.064504 -0.155603,0.359035 -0.293063,0.936429 -0.305495,1.280766 -0.02205,0.610988 -0.426974,1.297563 -0.765878,1.297563 -0.09323,0 -0.227965,-0.188966 -0.299572,-0.396828 z M 28.471776,51.822275 c 0,-0.104981 0.141113,-0.317042 0.3136,-0.455617 0.174922,-0.146972 0.3136,-0.167969 0.3136,-0.04199 0,0.104981 -0.141114,0.317042 -0.3136,0.455617 -0.174923,0.146973 -0.3136,0.167969 -0.3136,0.04199 z m 8.36246,-1.589409 c 0,-0.06299 0.180802,-0.367432 0.40167,-0.667678 0.22091,-0.300245 0.441065,-0.862941 0.489216,-1.247171 l 0.08757,-0.701272 0.03339,0.743264 c 0.03171,0.705471 -0.519076,1.988336 -0.855041,1.990435 -0.08631,6.31e-4 -0.156862,-0.06299 -0.156862,-0.125976 z m 10.153052,-0.146973 c 0.07854,-0.212061 0.195502,-0.312843 0.25978,-0.249854 0.06446,0.06299 1.34e-4,0.226759 -0.142794,0.363233 -0.20642,0.188966 -0.230486,0.16797 -0.116964,-0.10498 z m -2.626774,-1.562114 c 0,-0.10498 0.09953,-0.212061 0.221415,-0.212061 0.121794,0 0.163162,0.08398 0.09218,0.212061 -0.07097,0.104981 -0.170722,0.212062 -0.221414,0.212062 -0.05082,0 -0.09218,-0.08398 -0.09218,-0.212062 z m -4.808578,-0.810452 c 0,-0.222558 0.09408,-0.405225 0.209151,-0.405225 0.115075,0 0.209151,0.188965 0.209151,0.405225 0,0.22256 -0.09408,0.405227 -0.209151,0.405227 -0.115074,0 -0.209151,-0.188966 -0.209151,-0.405227 z m 19.234521,-0.581593 c 0,-0.10498 0.09408,-0.258252 0.209151,-0.32754 0.115075,-0.06299 0.209151,-0.04199 0.209151,0.08398 0,0.104982 -0.09408,0.258254 -0.209151,0.327541 -0.115074,0.06299 -0.209151,0.04199 -0.209151,-0.08398 z m -0.630329,-1.839263 c 0.285734,-0.214161 0.567836,-0.340138 0.626864,-0.283448 0.133345,0.125977 -0.622895,0.680275 -0.92505,0.673976 -0.121796,-0.0021 0.0124,-0.188965 0.298166,-0.392628 z m -17.43973,-2.624519 c -0.399235,-0.428322 -0.249406,-0.556399 0.272295,-0.239357 0.157703,0.104981 0.249427,0.285548 0.203691,0.417824 -0.05355,0.146973 -0.22217,0.08398 -0.475986,-0.188966 z"
     id="path4"
     style="fill:#ffffff;stroke-width:0.20581442" />
</svg>
